<svg xmlns="http://www.w3.org/2000/svg" width="312" height="235" viewBox="0 0 312 235">
  <g id="Shapes" transform="translate(-697 -355)">
    <rect id="Rectangle_2" data-name="Rectangle 2" width="94" height="35" rx="17.5" transform="translate(713 355)" fill="#d8dee9"/>
    <rect id="Rectangle_3" data-name="Rectangle 3" width="312" height="35" rx="17.5" transform="translate(697 421)" fill="#d8dee9"/>
    <rect id="Rectangle_4" data-name="Rectangle 4" width="139" height="35" rx="17.5" transform="translate(807 487)" fill="#d8dee9"/>
    <rect id="Rectangle_7" data-name="Rectangle 7" width="208" height="35" rx="17.5" transform="translate(697 555)" fill="#d8dee9"/>
    <path id="Path_2" data-name="Path 2" d="M744.746,386.874s8.12,10.005,8.12,20.3-8.12,20.881-8.12,20.881h34.221s-9.86-10.585-9.86-20.881,9.86-20.3,9.86-20.3Z" fill="#d8dee9"/>
    <path id="Path_43" data-name="Path 43" d="M744.746,386.874s8.12,10.005,8.12,20.3-8.12,20.881-8.12,20.881h34.221s-9.86-10.585-9.86-20.881,9.86-20.3,9.86-20.3Z" transform="translate(117.254 132.536)" fill="#d8dee9"/>
    <path id="Path_3" data-name="Path 3" d="M817.249,450.1c-3.915.87,4.64,13.485,3.48,26.1s-8.12,24.361-8.12,24.361h30.741s-.435-15.226-6.96-27.841c-4.209-8.137,4.373-18.4,0-22.621C834.327,448.1,818.638,449.787,817.249,450.1Z" fill="#d8dee9"/>
  </g>
</svg>
