<svg xmlns="http://www.w3.org/2000/svg" width="353" height="240" viewBox="0 0 353 240">
  <g id="Background_shapes" data-name="Background shapes" transform="translate(-697 -355)">
    <rect id="Rectangle_53" data-name="Rectangle 53" width="276" height="35" rx="17.5" transform="translate(713 355)" fill="#d8dee9"/>
    <rect id="Rectangle_54" data-name="Rectangle 54" width="174" height="35" rx="17.5" transform="translate(697 421)" fill="#d8dee9"/>
    <rect id="Rectangle_55" data-name="Rectangle 55" width="239" height="35" rx="17.5" transform="translate(707 487)" fill="#d8dee9"/>
    <rect id="Rectangle_56" data-name="Rectangle 56" width="208" height="35" rx="17.5" transform="translate(842 560)" fill="#d8dee9"/>
    <path id="Path_192" data-name="Path 192" d="M1487.12,878.269s7.022,9.942,7.022,20.581-7.022,21.977-7.022,21.977h35.694s-6.914-11.337-6.914-21.977,6.914-20.581,6.914-20.581Z" transform="translate(-626 -358.716)" fill="#d8dee9"/>
    <path id="Path_193" data-name="Path 193" d="M1487.12,878.269s5,7.937,5,16.432-5,17.546-5,17.546h25.4s-4.92-9.051-4.92-17.546,4.92-16.432,4.92-16.432Z" transform="translate(-661 -423.925)" fill="#d8dee9"/>
    <path id="Path_194" data-name="Path 194" d="M1487.12,878.269s6.964,9.179,6.964,19-6.964,20.29-6.964,20.29h35.4s-6.858-10.467-6.858-20.29,6.858-19,6.858-19Z" transform="translate(-748.52 -494.686)" fill="#d8dee9"/>
  </g>
</svg>
