<svg xmlns="http://www.w3.org/2000/svg" width="69.004" height="62.171" viewBox="0 0 69.004 62.171">
  <g id="undraw_web_developer_p3e5" transform="translate(0 -34.684)">
    <path id="Path_108" data-name="Path 108" d="M178.026,637.191h4.725l11.643-4.556s8.268-3.375,7.593,3.037-1.856,15.018-1.856,15.018-3.712-1.687-5.737-1.181-.675-10.293-.675-10.293-16.537,7.931-18.055,6.918-1.856-8.1-1.856-8.1Z" transform="translate(-159.465 -560.013)" fill="#2f2e41"/>
    <path id="Path_109" data-name="Path 109" d="M178.026,637.191h4.725l11.643-4.556s8.268-3.375,7.593,3.037-1.856,15.018-1.856,15.018-3.712-1.687-5.737-1.181-.675-10.293-.675-10.293-16.537,7.931-18.055,6.918-1.856-8.1-1.856-8.1Z" transform="translate(-159.465 -560.013)" opacity="0.1"/>
    <path id="Path_110" data-name="Path 110" d="M235.94,558.82l5.718,8.215,13.33,11.137s12.318,2.869,10.631,4.893-11.981-2.025-11.981-2.025S238.283,569.9,237.777,569.06s-6.075-8.775-6.075-8.775Z" transform="translate(-209.934 -496.437)" fill="#a0616a"/>
    <path id="Path_111" data-name="Path 111" d="M235.94,558.82l5.718,8.215,13.33,11.137s12.318,2.869,10.631,4.893-11.981-2.025-11.981-2.025S238.283,569.9,237.777,569.06s-6.075-8.775-6.075-8.775Z" transform="translate(-209.934 -496.437)" opacity="0.1"/>
    <path id="Path_112" data-name="Path 112" d="M200.429,507.092l3.712,7.256s-.844,3.544-2.194,3.881-7.087-4.387-7.087-4.387Z" transform="translate(-177.818 -451.343)" fill="#d0cde1"/>
    <path id="Path_113" data-name="Path 113" d="M200.429,507.092l3.712,7.256s-.844,3.544-2.194,3.881-7.087-4.387-7.087-4.387Z" transform="translate(-177.818 -451.343)" opacity="0.1"/>
    <path id="Path_114" data-name="Path 114" d="M556.6,643.433l1.1,4.523a.282.282,0,0,1-.005.153l-4.974,15.545a.283.283,0,0,1-.55-.054l-.688-6.056a.282.282,0,0,1,.012-.119l4.566-14.013a.283.283,0,0,1,.543.021Z" transform="translate(-488.696 -570.011)" fill="#2f2e41"/>
    <path id="Path_115" data-name="Path 115" d="M496.483,575.493l1.012,3.881-4.387,14.174-1.012-4.387Z" transform="translate(-428.987 -501.689)" fill="#f2f2f2"/>
    <path id="Path_116" data-name="Path 116" d="M415.725,759.587c.169.506,17.549-.169,17.718-.337a3.665,3.665,0,0,0,.371-.675c.159-.338.3-.675.3-.675l-.675-5.464-17.212-.611s-.43,4.63-.518,6.75A5.064,5.064,0,0,0,415.725,759.587Z" transform="translate(-370.334 -664.69)" fill="#2f2e41"/>
    <path id="Path_117" data-name="Path 117" d="M425.669,689.965l.337,4.725h-7.593v-4.725Z" transform="translate(-364.754 -601.48)" opacity="0.1"/>
    <path id="Path_118" data-name="Path 118" d="M368.854,701.745l.045-.009-.214,2.034h-4.219v-2.025Z" transform="translate(-317.726 -611.742)" opacity="0.1"/>
    <path id="Path_119" data-name="Path 119" d="M415.725,805.468c.169.506,17.549-.169,17.718-.337a3.661,3.661,0,0,0,.371-.675h-18.1A5.064,5.064,0,0,0,415.725,805.468Z" transform="translate(-370.334 -710.571)" opacity="0.1"/>
    <circle id="Ellipse_42" data-name="Ellipse 42" cx="7.593" cy="7.593" r="7.593" transform="translate(17.549 38.2)" fill="#a0616a"/>
    <path id="Path_120" data-name="Path 120" d="M175.5,437.633s-2.531,4.387-3.037,6.75-7.593-4.725-7.593-4.725l-.928-2.447s6.665-3.122,6.159-5.653S175.5,437.633,175.5,437.633Z" transform="translate(-150.863 -385.09)" fill="#a0616a"/>
    <path id="Path_121" data-name="Path 121" d="M209.539,584.722l6.918,9.112,16.537,12.318s11.981,2.531,9.281,4.387-10.462-1.687-10.462-1.687-16.705-8.943-20.249-12.656-10.124-9.956-10.124-9.956Z" transform="translate(-183.553 -519.017)" fill="#a0616a"/>
    <path id="Path_122" data-name="Path 122" d="M90.144,688.1l2.025,3.206,12.085-3.8a9.5,9.5,0,0,1,7.911.954c2.109,1.329,3.459,3.438.422,6.56-6.075,6.243-10.124,2.869-10.124,2.869S82.044,707.5,78.67,702.779s-3.544-7.087-3.544-7.087S88.119,687.592,90.144,688.1Z" transform="translate(-73.439 -608.219)" fill="#2f2e41"/>
    <path id="Path_123" data-name="Path 123" d="M269.156,771.764s5.4,3.544-1.012,5.231a16.989,16.989,0,0,1-11.137-.675s-5.568,0-5.568-2.869,1.856-3.206,1.856-3.206l5.737.844S265.95,769.233,269.156,771.764Z" transform="translate(-227.139 -680.748)" fill="#d0cde1"/>
    <path id="Path_124" data-name="Path 124" d="M195.964,352.033a5.662,5.662,0,0,0,1.591.57,1.453,1.453,0,0,0,1.468-.629,1.974,1.974,0,0,0,.167-.893,3.975,3.975,0,0,0-.634-2.645c-.374-.456-.919-.744-1.306-1.189a5.62,5.62,0,0,1-.66-1.079,5.912,5.912,0,0,0-3.414-3.178,7.4,7.4,0,0,0-1.993-.152l-3.9.055a5.1,5.1,0,0,0-4.88,2.646,15.279,15.279,0,0,0-1.723,2.379,8.346,8.346,0,0,0-.989,4.089,3.825,3.825,0,0,0,.14,1.082,6,6,0,0,0,.425.934c.731,1.436,1.165,3.229.342,4.615a8.866,8.866,0,0,0,3.789-2.574,7.1,7.1,0,0,1,1.315-1.59,1.318,1.318,0,0,1,1.84.153,1.649,1.649,0,0,1,.186.772,3.54,3.54,0,0,0,.213,1.3.977.977,0,0,0,1.061.605c.735-.207.664-1.335,1.23-1.847.43-.389,1.093-.315,1.645-.491a2.441,2.441,0,0,0,1.4-1.38c.209-.469.206-1.7.6-1.95C194.376,351.322,195.5,351.828,195.964,352.033Z" transform="translate(-164.592 -308.15)" fill="#2f2e41"/>
    <path id="Path_125" data-name="Path 125" d="M74.443,472.1a2,2,0,0,1,1.042,0c1.083.291,3.511,1.061,4.032,2.232a18.9,18.9,0,0,0,3.037,3.881s3.206,3.206,2.531,5.4-3.206,4.725-3.206,4.725.675,10.462-2.7,13.162-4.725.844-4.725,3.375-10.462,10.462-12.487,5.568c0,0,1.012-9.112.675-12.318C62.31,494.969,62.8,475.255,74.443,472.1Z" transform="translate(-61.968 -420.781)" fill="#d0cde1"/>
    <path id="Path_126" data-name="Path 126" d="M147.894,502.764s10.293,7.593,8.437,10.8c0,0-6.243,3.037-7.593,2.869s-6.581-6.075-7.931-6.581S138.782,500.233,147.894,502.764Z" transform="translate(-130.007 -447.183)" fill="#d0cde1"/>
  </g>
</svg>
